<svg width="15" height="15" viewBox="0 0 15 15" fill="none" xmlns="http://www.w3.org/2000/svg">
<path d="M7.5 0C3.35937 0 0 3.35938 0 7.5C0 11.6406 3.35937 15 7.5 15C11.6406 15 15 11.6406 15 7.5C15 3.35938 11.6406 0 7.5 0ZM11.3594 5.68638L6.95312 10.1094C6.808 10.2553 6.61199 10.3393 6.40625 10.3438C6.30377 10.3451 6.20216 10.3249 6.10796 10.2845C6.01376 10.2442 5.92908 10.1845 5.85937 10.1094L3.64062 7.89062C3.56778 7.81778 3.51 7.73131 3.47058 7.63613C3.43116 7.54096 3.41087 7.43895 3.41087 7.33594C3.41087 7.12789 3.49351 6.92836 3.64062 6.78125C3.78774 6.63414 3.98726 6.55149 4.19531 6.55149C4.40336 6.55149 4.60289 6.63414 4.75 6.78125L6.40625 8.4375L10.2656 4.57813C10.3377 4.50394 10.4239 4.44498 10.5192 4.40471C10.6145 4.36444 10.7169 4.34369 10.8203 4.34369C10.9237 4.34369 11.0261 4.36444 11.1214 4.40471C11.2167 4.44498 11.3029 4.50394 11.375 4.57813C11.5193 4.7277 11.5986 4.92824 11.5957 5.13603C11.5927 5.34383 11.5078 5.54204 11.3594 5.6875V5.68638Z" fill="#4B97F7"/>
</svg>
