<svg width="17" height="17" viewBox="0 0 17 17" fill="none" xmlns="http://www.w3.org/2000/svg">
<path fill-rule="evenodd" clip-rule="evenodd" d="M16.8743 12.8634C16.1683 14.5657 14.4621 16.3254 12.8146 16.913C11.4615 17.3825 9.99069 15.8565 10.5199 14.5069C11.1676 12.8634 12.7557 11.2203 14.4032 10.5158C15.8741 9.92879 17.4627 11.396 16.8743 12.8634ZM15.4034 13.5086C15.8151 13.9193 13.9326 15.7975 13.5208 15.3865C13.1091 14.9755 14.9914 13.0985 15.4034 13.5086ZM15.933 9.75282C13.1091 9.04861 9.1666 12.9222 9.46083 15.7981C7.46044 14.8591 7.93108 12.7462 9.34302 10.9856L5.81288 7.46422C3.9889 8.75542 0.752684 9.16613 0.752684 6.23178C0.164529 5.76231 -0.188606 4.88182 0.105926 4.11916C0.752684 2.47541 2.34164 0.832258 3.9892 0.127748C4.75408 -0.165747 5.57755 0.0689883 6.0485 0.597219C9.28502 0.186508 9.16691 3.53187 7.69606 5.64449L11.2851 9.16582C13.1677 7.93339 15.2862 7.58113 15.9348 9.75282H15.933ZM6.10711 4.00134L7.1073 4.99904C7.87218 3.88382 8.16641 2.82766 7.69576 2.35819C6.16601 0.832258 1.046 5.93829 2.51806 7.46422C3.04761 7.93369 4.10641 7.69896 5.22472 6.87723L4.22422 5.87953C4.04781 5.11626 5.28333 3.94107 6.1068 4.00164L6.10711 4.00134Z" fill="#4B97F7"/>
</svg>